<svg width="32" height="31" viewBox="0 0 32 31" fill="none" xmlns="http://www.w3.org/2000/svg">
<path fill-rule="evenodd" clip-rule="evenodd" d="M16.0001 0C7.16466 0 0 7.11491 0 15.8923C0 22.914 4.58453 28.8712 10.9419 30.9727C11.7415 31.1198 12.0351 30.6279 12.0351 30.2082C12.0351 29.8292 12.0202 28.5773 12.0133 27.2493C7.56209 28.2107 6.62283 25.3742 6.62283 25.3742C5.89499 23.5372 4.8463 23.0488 4.8463 23.0488C3.39461 22.0624 4.95573 22.0827 4.95573 22.0827C6.56242 22.1945 7.40842 23.7204 7.40842 23.7204C8.83547 26.15 11.1514 25.4476 12.0645 25.0415C12.2081 24.0146 12.6227 23.313 13.0803 22.9164C9.52647 22.5145 5.7906 21.1518 5.7906 15.0622C5.7906 13.3271 6.41563 11.9094 7.43916 10.7965C7.27303 10.3959 6.72537 8.77975 7.59415 6.59067C7.59415 6.59067 8.93774 6.16354 11.9953 8.21971C13.2716 7.86759 14.6404 7.691 16.0001 7.68494C17.3599 7.691 18.7297 7.86759 20.0084 8.21971C23.0623 6.16354 24.404 6.59067 24.404 6.59067C25.2749 8.77975 24.727 10.3959 24.5608 10.7965C25.5868 11.9094 26.2075 13.3271 26.2075 15.0622C26.2075 21.1663 22.4645 22.5103 18.9017 22.9038C19.4756 23.397 19.9869 24.3641 19.9869 25.8468C19.9869 27.973 19.9684 29.6845 19.9684 30.2082C19.9684 30.6311 20.2564 31.1266 21.0674 30.9706C27.4213 28.8668 32 22.9117 32 15.8923C32 7.11491 24.8364 0 16.0001 0Z" fill="#8351C1"/>
<path fill-rule="evenodd" clip-rule="evenodd" d="M9.12889 22.4452C9.09907 22.5127 8.99323 22.5327 8.8968 22.4865C8.79859 22.4423 8.74342 22.3505 8.77527 22.283C8.80442 22.2137 8.91048 22.1947 9.00848 22.2406C9.10692 22.2851 9.16298 22.3777 9.12889 22.4452Z" fill="#8351C1"/>
<path fill-rule="evenodd" clip-rule="evenodd" d="M9.67731 23.0569C9.61273 23.1168 9.48649 23.089 9.40082 22.9944C9.31225 22.8999 9.29566 22.7737 9.36113 22.7129C9.42773 22.653 9.55017 22.681 9.63897 22.7755C9.72755 22.871 9.74481 22.9964 9.67731 23.0569Z" fill="#8351C1"/>
<path fill-rule="evenodd" clip-rule="evenodd" d="M10.2112 23.837C10.1282 23.8947 9.99255 23.8406 9.90868 23.7202C9.82571 23.5998 9.82571 23.4553 9.91048 23.3975C9.99457 23.3396 10.1282 23.3916 10.2132 23.5112C10.2959 23.6334 10.2959 23.7781 10.2112 23.837Z" fill="#8351C1"/>
<path fill-rule="evenodd" clip-rule="evenodd" d="M10.9428 24.5906C10.8685 24.6724 10.7104 24.6504 10.5947 24.5387C10.4763 24.4295 10.4434 24.2746 10.5178 24.1927C10.5929 24.1106 10.7519 24.1337 10.8685 24.2445C10.986 24.3535 11.0219 24.5096 10.9428 24.5906Z" fill="#8351C1"/>
<path fill-rule="evenodd" clip-rule="evenodd" d="M11.9518 25.028C11.9191 25.1341 11.7668 25.1823 11.6134 25.1372C11.4603 25.0908 11.36 24.9665 11.391 24.8593C11.4228 24.7526 11.5758 24.7023 11.7303 24.7506C11.8832 24.7968 11.9837 24.9201 11.9518 25.028Z" fill="#8351C1"/>
<path fill-rule="evenodd" clip-rule="evenodd" d="M13.0601 25.1093C13.0639 25.221 12.9338 25.3136 12.7728 25.3154C12.6109 25.3192 12.4799 25.2288 12.4781 25.1189C12.4781 25.0061 12.6053 24.9144 12.7672 24.9117C12.9282 24.9086 13.0601 24.9983 13.0601 25.1093Z" fill="#8351C1"/>
<path fill-rule="evenodd" clip-rule="evenodd" d="M14.0913 24.9337C14.1106 25.0427 13.9987 25.1546 13.8388 25.1842C13.6816 25.2131 13.536 25.1458 13.5161 25.0377C13.4966 24.926 13.6105 24.8141 13.7675 24.7852C13.9276 24.7574 14.0709 24.8229 14.0913 24.9337Z" fill="#8351C1"/>
</svg>
