<svg width="53" height="52" viewBox="0 0 53 52" fill="none" xmlns="http://www.w3.org/2000/svg">
<path fill-rule="evenodd" clip-rule="evenodd" d="M26.1546 0C11.7117 0 0 11.7107 0 26.1578C0 37.7152 7.49409 47.5204 17.8861 50.9792C19.1932 51.2214 19.6731 50.4118 19.6731 49.7209C19.6731 49.0971 19.6489 47.0365 19.6376 44.8508C12.3614 46.4331 10.826 41.7644 10.826 41.7644C9.63625 38.7409 7.92201 37.937 7.92201 37.937C5.549 36.3134 8.10088 36.3468 8.10088 36.3468C10.7273 36.5309 12.1102 39.0424 12.1102 39.0424C14.4429 43.0414 18.2287 41.8853 19.7212 41.2169C19.956 39.5267 20.6338 38.3719 21.3817 37.7191C15.5725 37.0576 9.46561 34.8147 9.46561 24.7916C9.46561 21.9357 10.4873 19.6022 12.1604 17.7703C11.8889 17.111 10.9936 14.451 12.4138 10.8479C12.4138 10.8479 14.6101 10.1448 19.6082 13.5292C21.6945 12.9496 23.9319 12.6589 26.1546 12.649C28.3773 12.6589 30.6165 12.9496 32.7067 13.5292C37.6987 10.1448 39.892 10.8479 39.892 10.8479C41.3156 14.451 40.4199 17.111 40.1484 17.7703C41.8254 19.6022 42.8402 21.9357 42.8402 24.7916C42.8402 34.8385 36.7216 37.0507 30.8976 37.6983C31.8357 38.51 32.6716 40.1019 32.6716 42.5424C32.6716 46.042 32.6413 48.8589 32.6413 49.7209C32.6413 50.417 33.1121 51.2326 34.4378 50.9758C44.8242 47.513 52.3088 37.7113 52.3088 26.1578C52.3088 11.7107 40.5988 0 26.1546 0" fill="#6742CF"/>
<path fill-rule="evenodd" clip-rule="evenodd" d="M9.90614 37.557C9.84854 37.6874 9.64411 37.7259 9.45788 37.6367C9.26817 37.5514 9.16163 37.3742 9.22313 37.2438C9.27943 37.11 9.48429 37.0732 9.67356 37.1619C9.8637 37.2477 9.97198 37.4266 9.90614 37.557" fill="#6742CF"/>
<path fill-rule="evenodd" clip-rule="evenodd" d="M10.9655 38.7387C10.8407 38.8544 10.5969 38.8007 10.4315 38.6179C10.2604 38.4355 10.2283 38.1917 10.3548 38.0743C10.4834 37.9586 10.7199 38.0128 10.8914 38.1951C11.0625 38.3796 11.0958 38.6218 10.9655 38.7387" fill="#6742CF"/>
<path fill-rule="evenodd" clip-rule="evenodd" d="M11.9967 40.2454C11.8365 40.3567 11.5745 40.2523 11.4125 40.0197C11.2522 39.7871 11.2522 39.5081 11.4159 39.3963C11.5784 39.2846 11.8365 39.3851 12.0006 39.616C12.1605 39.852 12.1605 40.1314 11.9967 40.2454" fill="#6742CF"/>
<path fill-rule="evenodd" clip-rule="evenodd" d="M13.4096 41.7007C13.2662 41.8589 12.9609 41.8164 12.7374 41.6007C12.5087 41.3897 12.445 41.0904 12.5888 40.9323C12.7339 40.7738 13.041 40.8184 13.2662 41.0324C13.4932 41.2429 13.5625 41.5444 13.4096 41.7007" fill="#6742CF"/>
<path fill-rule="evenodd" clip-rule="evenodd" d="M15.3586 42.5458C15.2953 42.7507 15.0013 42.8438 14.705 42.7568C14.4092 42.6671 14.2156 42.4271 14.2754 42.2201C14.3369 42.0139 14.6322 41.9169 14.9307 42.01C15.226 42.0992 15.4201 42.3375 15.3586 42.5458" fill="#6742CF"/>
<path fill-rule="evenodd" clip-rule="evenodd" d="M17.4989 42.7027C17.5063 42.9184 17.2551 43.0973 16.9441 43.1008C16.6314 43.1081 16.3785 42.9336 16.375 42.7213C16.375 42.5034 16.6206 42.3263 16.9333 42.3211C17.2443 42.315 17.4989 42.4883 17.4989 42.7027" fill="#6742CF"/>
<path fill-rule="evenodd" clip-rule="evenodd" d="M19.4907 42.3635C19.528 42.5741 19.3119 42.7902 19.0031 42.8474C18.6994 42.9033 18.4184 42.7733 18.3798 42.5645C18.3421 42.3488 18.5622 42.1327 18.8653 42.0768C19.1746 42.0231 19.4513 42.1496 19.4907 42.3635" fill="#6742CF"/>
</svg>
