<svg width="47" height="52" viewBox="0 0 47 52" fill="none" xmlns="http://www.w3.org/2000/svg">
<path d="M32.891 22.4713C32.891 21.3565 31.9873 20.4528 30.8724 20.4528H10.0813C8.96645 20.4528 8.06274 21.3565 8.06274 22.4713C8.06274 23.5862 8.96645 24.4899 10.0813 24.4899H30.8724C31.9873 24.4899 32.891 23.5862 32.891 22.4713Z" fill="#6742CF"/>
<path d="M10.0813 28.527C8.96645 28.527 8.06274 29.4307 8.06274 30.5455C8.06274 31.6604 8.96645 32.5641 10.0813 32.5641H22.7084C23.8233 32.5641 24.727 31.6604 24.727 30.5455C24.727 29.4307 23.8233 28.527 22.7084 28.527H10.0813Z" fill="#6742CF"/>
<path d="M14.8252 47.9051H8.07421C5.84815 47.9051 4.03711 46.094 4.03711 43.868V8.34143C4.03711 6.11536 5.84815 4.30432 8.07421 4.30432H32.8912C35.1173 4.30432 36.9283 6.11536 36.9283 8.34143V20.7555C36.9283 21.8704 37.832 22.7741 38.9469 22.7741C40.0617 22.7741 40.9654 21.8704 40.9654 20.7555V8.34143C40.9654 3.8893 37.3433 0.267212 32.8912 0.267212H8.07421C3.62209 0.267212 0 3.8893 0 8.34143V43.868C0 48.3201 3.62209 51.9422 8.07421 51.9422H14.8252C15.94 51.9422 16.8437 51.0385 16.8437 49.9236C16.8437 48.8088 15.94 47.9051 14.8252 47.9051Z" fill="#6742CF"/>
<path d="M44.5403 29.4929C42.1792 27.1318 38.3375 27.1317 35.9779 29.4913L24.8957 40.5489C24.6604 40.7837 24.4868 41.073 24.3901 41.3911L21.9766 49.3366C21.7626 50.0411 21.949 50.806 22.4632 51.333C22.8483 51.7277 23.3715 51.942 23.9082 51.942C24.0877 51.942 24.269 51.918 24.4469 51.8686L32.5943 49.6118C32.9296 49.5189 33.2352 49.341 33.4814 49.0951L44.5404 38.057C46.9015 35.6959 46.9015 31.8542 44.5403 29.4929ZM31.0051 45.8629L26.9062 46.9983L28.1057 43.0491L35.5834 35.5881L38.4386 38.4433L31.0051 45.8629ZM41.6872 35.2011L41.2961 35.5914L38.4413 32.7367L38.8311 32.3477C39.6182 31.5607 40.8987 31.5607 41.6858 32.3477C42.4728 33.1347 42.4728 34.4153 41.6872 35.2011Z" fill="#6742CF"/>
<path d="M30.8724 12.3785H10.0813C8.96645 12.3785 8.06274 13.2822 8.06274 14.3971C8.06274 15.5119 8.96645 16.4156 10.0813 16.4156H30.8724C31.9873 16.4156 32.891 15.5119 32.891 14.3971C32.891 13.2822 31.9873 12.3785 30.8724 12.3785Z" fill="#6742CF"/>
</svg>
