<svg width="40" height="36" viewBox="0 0 40 36" fill="none" xmlns="http://www.w3.org/2000/svg">
<g id="devices_24px">
<path id="icon/device/devices_24px" fill-rule="evenodd" clip-rule="evenodd" d="M6 12.5C6 11.675 6.675 11 7.5 11H31.5C32.325 11 33 10.325 33 9.5C33 8.675 32.325 8 31.5 8H6C4.35 8 3 9.35 3 11V27.5H2.25C1.005 27.5 0 28.505 0 29.75C0 30.995 1.005 32 2.25 32H21V27.5H6V12.5ZM34.5 14H25.5C24.675 14 24 14.675 24 15.5V30.5C24 31.325 24.675 32 25.5 32H34.5C35.325 32 36 31.325 36 30.5V15.5C36 14.675 35.325 14 34.5 14ZM27 27.5H33V17H27V27.5Z" fill="#9B51E0"/>
</g>
</svg>
