<svg width="54" height="53" viewBox="0 0 54 53" fill="none" xmlns="http://www.w3.org/2000/svg">
<path fill-rule="evenodd" clip-rule="evenodd" d="M27.0531 0C12.5815 0 0.849976 11.7315 0.849976 26.2031C0.849976 40.6747 12.5815 52.4062 27.0531 52.4062C41.5247 52.4062 53.2562 40.6747 53.2562 26.2031C53.2562 11.7315 41.5247 0 27.0531 0ZM13.4293 21.7026H19.3675V39.5444H13.4293V21.7026ZM19.7586 16.1834C19.72 14.434 18.469 13.1016 16.4376 13.1016C14.4062 13.1016 13.0781 14.434 13.0781 16.1834C13.0781 17.8965 14.3669 19.2673 16.3605 19.2673H16.3985C18.469 19.2673 19.7586 17.8965 19.7586 16.1834ZM33.9458 21.2836C37.8534 21.2836 40.7829 23.8342 40.7829 29.3144L40.7826 39.5444H34.8447V29.999C34.8447 27.6014 33.9854 25.9654 31.8357 25.9654C30.1952 25.9654 29.218 27.0683 28.7888 28.1336C28.6318 28.5154 28.5933 29.0473 28.5933 29.5805V39.5449H22.6544C22.6544 39.5449 22.7326 23.3772 22.6544 21.703H28.5933V24.2302C29.3814 23.0153 30.793 21.2836 33.9458 21.2836Z" fill="#6742CF"/>
</svg>
